<?xml version="1.0" ?><svg data-name="Layer 1" id="Layer_1" viewBox="0 0 32 32" xmlns="http://www.w3.org/2000/svg" xmlns:xlink="http://www.w3.org/1999/xlink"><defs><style>.cls-1{fill:url(#linear-gradient);}.cls-2{fill:#1282ff;}</style><linearGradient gradientUnits="userSpaceOnUse" id="linear-gradient" x1="18.5" x2="18.5" y1="4" y2="28"><stop offset="0.24" stop-color="#cdeaff"/><stop offset="0.34" stop-color="#c2e4ff"/><stop offset="0.5" stop-color="#a5d5ff"/><stop offset="0.72" stop-color="#76bcff"/><stop offset="0.98" stop-color="#369aff"/><stop offset="1" stop-color="#3197ff"/></linearGradient></defs><title/><polyline class="cls-1" points="9 23 9 28 28 28 28 4 9 4 9 9"/><path class="cls-2" d="M16.49,21.49l1.21,1.21L24.41,16,17.71,9.29l-1.21,1.21,3.09,3.17A6,6,0,0,0,21.47,15l.06,0H1v2H21.53l-.1,0a6,6,0,0,0-1.84,1.28Z"/><polygon class="cls-2" points="9 3 9 9 11 9 11 5 27 5 27 27 11 27 11 23 9 23 9 29 29 29 29 3 9 3"/></svg>